<svg width="75" height="75" viewBox="0 0 75 75" fill="none" xmlns="http://www.w3.org/2000/svg">
<g clip-path="url(#clip0_106_3936)">
<path d="M37.5001 57.9073C48.7706 57.9073 57.9071 48.7708 57.9071 37.5003C57.9071 26.2298 48.7706 17.0933 37.5001 17.0933C26.2296 17.0933 17.093 26.2298 17.093 37.5003C17.093 48.7708 26.2296 57.9073 37.5001 57.9073Z" fill="#FFBF31"/>
<path d="M37.5 17.0933C48.7791 17.0933 57.907 26.2212 57.907 37.5003C57.907 48.7794 48.7791 57.9073 37.5 57.9073" fill="#F4AB0B"/>
<path d="M37.5 58.7792C25.7558 58.7792 16.2209 49.2444 16.2209 37.5002C16.2209 25.7561 25.7558 16.2212 37.5 16.2212C49.2441 16.2212 58.779 25.7561 58.779 37.5002C58.779 49.2444 49.2441 58.7792 37.5 58.7792ZM37.5 17.9653C26.7442 17.9653 17.9651 26.7444 17.9651 37.5002C17.9651 48.256 26.7442 57.0351 37.5 57.0351C48.2558 57.0351 57.0349 48.256 57.0349 37.5002C57.0349 26.7444 48.2558 17.9653 37.5 17.9653Z" fill="#33363A"/>
<path d="M37.5 65.1743C35.8721 65.1743 34.3024 65.0581 32.7325 64.7673C32.2674 64.7092 31.9186 64.2442 32.0348 63.779C32.093 63.3138 32.558 62.965 33.0231 63.0812C34.4767 63.3138 35.9882 63.4882 37.4999 63.4882H37.5581C38.0232 63.4882 38.4302 63.8952 38.4302 64.3604C38.4302 64.8254 38.0232 65.1743 37.5 65.1743ZM42.2094 64.7673C41.8024 64.7673 41.4536 64.4766 41.3372 64.0696C41.2791 63.6044 41.5698 63.1394 42.035 63.0812C43.5467 62.7905 45 62.4417 46.3955 61.9185C46.8607 61.7441 47.3257 61.9767 47.5002 62.4417C47.6746 62.9069 47.442 63.3719 46.977 63.5464C45.4653 64.1278 43.8956 64.5348 42.3259 64.8255C42.3256 64.7673 42.2674 64.7673 42.2094 64.7673ZM28.3721 63.6044C28.2559 63.6044 28.1978 63.6044 28.0814 63.5463C26.5697 63.0231 25.1163 62.3253 23.7208 61.5114C23.3139 61.2788 23.1395 60.7556 23.3721 60.3486C23.6046 59.9416 24.1278 59.7673 24.5348 59.9998C25.8139 60.7556 27.2092 61.3952 28.6628 61.9185C29.1279 62.0929 29.3605 62.5581 29.1859 63.0232C29.0697 63.372 28.7209 63.6044 28.3721 63.6044ZM50.9883 61.5696C50.6975 61.5696 50.4069 61.3952 50.2325 61.1626C50 60.7556 50.1163 60.2324 50.5233 59.9416C51.8024 59.1859 53.0814 58.3137 54.2443 57.3254C54.5931 57.0346 55.1745 57.0346 55.4652 57.4416C55.756 57.7904 55.756 58.3718 55.349 58.6625C54.1281 59.7091 52.7909 60.6392 51.3955 61.4532C51.2791 61.5696 51.1047 61.5696 50.9883 61.5696ZM20.2906 58.9533C20.1162 58.9533 19.8837 58.8951 19.7093 58.7789C18.4883 57.7324 17.3256 56.6278 16.279 55.3487C15.9883 54.9999 15.9883 54.4185 16.3953 54.1278C16.7441 53.837 17.3254 53.837 17.6162 54.244C18.6045 55.4067 19.6511 56.4533 20.8138 57.4416C21.1626 57.7324 21.2208 58.3137 20.93 58.6625C20.814 58.8371 20.5814 58.9533 20.2906 58.9533ZM58.0815 55.5813C57.9071 55.5813 57.6745 55.5231 57.5001 55.4069C57.1513 55.1161 57.0931 54.5347 57.3839 54.1859C58.3722 53.0232 59.2444 51.8023 60.0002 50.465C60.2327 50.058 60.7559 49.8836 61.1629 50.1162C61.5699 50.3488 61.7443 50.8719 61.5117 51.2789C60.6977 52.6742 59.7676 54.0115 58.721 55.2323C58.6047 55.4649 58.3139 55.5813 58.0815 55.5813ZM14.3023 51.8603C14.0116 51.8603 13.721 51.6859 13.5466 51.4533C12.7326 50.058 12.0349 48.6045 11.5117 47.0928C11.3373 46.6276 11.5699 46.1626 12.0349 45.9881C12.5 45.8137 12.965 46.0462 13.1396 46.5112C13.6628 47.9066 14.3023 49.3019 15.0583 50.581C15.2909 50.988 15.1745 51.5112 14.7675 51.8019C14.593 51.8021 14.4186 51.8603 14.3023 51.8603ZM62.7326 47.4999C62.6164 47.4999 62.5582 47.4999 62.4419 47.4417C61.9767 47.2673 61.7441 46.8022 61.9187 46.337C62.4419 44.9417 62.8488 43.43 63.0814 41.9765C63.1396 41.5113 63.6046 41.1625 64.0698 41.2787C64.5349 41.3369 64.8837 41.8019 64.7675 42.2671C64.4767 43.8368 64.0698 45.4067 63.5466 46.9182C63.4302 47.2673 63.0814 47.4999 62.7326 47.4999ZM11.1046 43.1394C10.6976 43.1394 10.3488 42.8486 10.2324 42.4416C9.94165 40.8719 9.82544 39.244 9.82544 37.6161C9.82544 37.1509 10.2324 36.7439 10.6976 36.7439C11.1627 36.7439 11.5697 37.1509 11.5697 37.6161C11.5697 39.1278 11.6859 40.6393 11.9767 42.0928C12.0349 42.558 11.7441 43.023 11.279 43.0812C11.1627 43.1394 11.1627 43.1394 11.1046 43.1394ZM64.3605 38.3138C63.8954 38.3138 63.4884 37.9069 63.4884 37.4417C63.4884 35.93 63.3722 34.4185 63.0814 32.9068C63.0232 32.4416 63.314 31.9766 63.7792 31.9184C64.2443 31.8602 64.7093 32.151 64.7675 32.6162C65.0583 34.1859 65.1745 35.8138 65.1745 37.4417C65.2325 37.9649 64.8255 38.3138 64.3605 38.3138ZM11.0465 33.7789C10.9883 33.7789 10.9303 33.7789 10.8721 33.7789C10.407 33.7207 10.0582 33.2557 10.1744 32.7906C10.4652 31.2208 10.8721 29.6509 11.3953 28.1394C11.5697 27.6742 12.0349 27.4417 12.5 27.6162C12.9652 27.7906 13.1978 28.2558 13.0232 28.7209C12.5 30.1163 12.1511 31.628 11.8605 33.0815C11.8605 33.4881 11.4535 33.7789 11.0465 33.7789ZM62.7326 29.1859C62.3838 29.1859 62.0349 28.9534 61.9187 28.6046C61.3955 27.2092 60.7559 25.8139 60 24.5348C59.7674 24.1278 59.8838 23.6046 60.2908 23.3721C60.6977 23.1395 61.2209 23.2558 61.4535 23.6628C62.2675 25.0581 62.9652 26.5117 63.4884 28.0234C63.6628 28.4885 63.4302 28.9535 62.9652 29.1281C62.907 29.1278 62.7906 29.1859 62.7326 29.1859ZM14.186 25.058C14.0116 25.058 13.8952 24.9998 13.779 24.9418C13.372 24.7092 13.1976 24.186 13.4302 23.779C14.2442 22.3837 15.1743 21.0464 16.1628 19.8255C16.4536 19.4767 17.035 19.4185 17.3838 19.7093C17.7326 20 17.7907 20.5814 17.5 20.9302C16.5116 22.0929 15.6395 23.3139 14.9419 24.6512C14.8255 24.8836 14.5349 25.058 14.186 25.058ZM58.0233 21.1044C57.7907 21.1044 57.5001 20.9882 57.3837 20.8137C56.3954 19.6509 55.3489 18.6044 54.1861 17.616C53.8373 17.3253 53.7791 16.7439 54.0699 16.3951C54.3607 16.0463 54.942 15.9881 55.2908 16.2789C56.5118 17.3254 57.6745 18.4882 58.721 19.7091C59.0118 20.0579 59.0118 20.6393 58.6048 20.93C58.4303 21.0464 58.2559 21.1044 58.0233 21.1044ZM20.1744 17.9068C19.9418 17.9068 19.7093 17.7906 19.5349 17.616C19.2441 17.2672 19.2441 16.6859 19.6511 16.3951C20.872 15.3486 22.2091 14.4184 23.6046 13.6044C24.0116 13.3719 24.5348 13.4882 24.8256 13.8952C25.1163 14.3022 24.9418 14.8254 24.5348 15.1161C23.2557 15.8719 21.9767 16.744 20.8138 17.7324C20.5814 17.7906 20.3488 17.9068 20.1744 17.9068ZM50.9303 15.1161C50.7559 15.1161 50.6395 15.058 50.4651 14.9999C49.186 14.2442 47.7907 13.6046 46.3954 13.0813C45.9302 12.9069 45.6976 12.4417 45.8722 11.9765C46.0466 11.5114 46.5117 11.2788 46.9769 11.4533C48.4886 11.9765 49.9419 12.6743 51.3374 13.4882C51.7444 13.7208 51.9188 14.244 51.6282 14.651C51.5117 14.9417 51.2209 15.1161 50.9303 15.1161ZM28.1976 13.1975C27.8488 13.1975 27.4999 12.9649 27.3836 12.6161C27.2092 12.1509 27.4418 11.6859 27.9068 11.5114C29.4185 10.93 30.9882 10.523 32.558 10.2323C33.0231 10.1741 33.4881 10.4648 33.5463 10.93C33.6045 11.3952 33.3137 11.8602 32.8486 11.9183C31.3369 12.2091 29.8835 12.5579 28.488 13.0811C28.4302 13.1975 28.314 13.1975 28.1976 13.1975ZM42.1512 11.9183C42.093 11.9183 42.035 11.9183 41.9768 11.9183C40.5233 11.6858 39.0117 11.5114 37.4419 11.5114H37.3256C36.8605 11.5114 36.4535 11.1044 36.4535 10.6392C36.4535 10.1741 36.8605 9.76709 37.3256 9.76709H37.4419C39.0698 9.76709 40.6395 9.8833 42.2674 10.1741C42.7326 10.2323 43.0814 10.6973 42.9651 11.1624C42.9651 11.6277 42.5582 11.9183 42.1512 11.9183Z" fill="#ED8700"/>
<path d="M37.5581 71.8026C37.0929 71.8026 36.6859 71.3956 36.6859 70.9304C36.6859 70.4653 37.0929 70.0583 37.5581 70.0583C39.0116 70.0583 40.5231 69.9421 41.9766 69.7675C42.4418 69.7093 42.9068 70.0583 42.965 70.5233C43.0232 70.9885 42.6742 71.4535 42.2092 71.5116C40.6977 71.6864 39.1279 71.8026 37.5581 71.8026ZM33.0233 71.512C32.9651 71.512 32.9651 71.512 32.9071 71.512C31.3374 71.2794 29.8257 70.9888 28.3141 70.5818C27.849 70.4656 27.5583 70.0004 27.7327 69.5353C27.849 69.0701 28.3141 68.7795 28.7793 68.9539C30.1746 69.3609 31.6863 69.6516 33.1398 69.826C33.605 69.8842 33.9538 70.3492 33.8956 70.8144C33.8372 71.163 33.4303 71.512 33.0233 71.512ZM46.5697 70.5235C46.1628 70.5235 45.814 70.2909 45.7558 69.8839C45.6396 69.4187 45.872 68.9537 46.3372 68.7792C47.7325 68.3722 49.186 67.849 50.5231 67.2675C50.9883 67.0931 51.4533 67.2675 51.6859 67.7326C51.8603 68.1978 51.6859 68.6628 51.2207 68.8954C49.7672 69.5349 48.3137 70.0581 46.8022 70.4651C46.7441 70.5235 46.6279 70.5235 46.5697 70.5235ZM24.2442 69.0701C24.128 69.0701 24.0116 69.0701 23.8954 69.0119C22.4419 68.3724 21.0466 67.6748 19.7094 66.8608C19.3024 66.6282 19.1862 66.0469 19.4186 65.6399C19.6512 65.2329 20.2326 65.1167 20.6396 65.3491C21.9187 66.1049 23.2558 66.8026 24.5931 67.384C25.0583 67.5584 25.2327 68.0817 25.0583 68.5468C24.8837 68.8375 24.593 69.0701 24.2442 69.0701ZM54.8837 66.9188C54.5929 66.9188 54.3023 66.7444 54.1279 66.5119C53.8953 66.1049 54.0117 65.5817 54.4187 65.2909C55.6978 64.5352 56.9187 63.663 58.0233 62.7329C58.3721 62.4421 58.9535 62.5003 59.2442 62.8491C59.535 63.1979 59.4768 63.7792 59.128 64.07C57.9071 65.0584 56.628 65.9887 55.2908 66.8026C55.2326 66.8607 55.0581 66.9188 54.8837 66.9188ZM16.4534 64.3608C16.279 64.3608 16.0465 64.3026 15.9303 64.1864C14.7093 63.198 13.5466 62.1515 12.5 60.9887C12.1512 60.64 12.2093 60.0586 12.5582 59.7678C12.907 59.419 13.4884 59.477 13.7792 59.826C14.7675 60.9307 15.8722 61.9191 17.035 62.8492C17.3838 63.14 17.4419 63.7214 17.1512 64.0702C16.9768 64.2444 16.7442 64.3608 16.4534 64.3608ZM61.9187 61.163C61.6861 61.163 61.5117 61.1048 61.3373 60.9304C60.9885 60.5816 60.9885 60.0583 61.2791 59.7095C62.2675 58.6047 63.2558 57.442 64.0698 56.2793C64.3605 55.8723 64.8837 55.8141 65.2907 56.0467C65.6977 56.3374 65.7559 56.8606 65.5233 57.2676C64.6511 58.5467 63.6628 59.7677 62.5582 60.8722C62.3837 61.0468 62.1512 61.163 61.9187 61.163ZM10.2326 57.7328C9.9418 57.7328 9.70938 57.6166 9.53483 57.384C8.66269 56.1049 7.79071 54.7677 7.09296 53.3724C6.86038 52.9654 7.03478 52.4422 7.44176 52.2096C7.84873 51.9771 8.37192 52.1515 8.6045 52.5584C9.30225 53.8375 10.058 55.1165 10.9302 56.3374C11.2209 56.7444 11.1046 57.2676 10.6976 57.5584C10.5814 57.6747 10.407 57.7328 10.2326 57.7328ZM67.2094 53.7212C67.0932 53.7212 66.9186 53.663 66.8024 53.605C66.3954 53.3724 66.221 52.8492 66.4536 52.4422C67.1513 51.1051 67.7327 49.7678 68.1977 48.3725C68.3721 47.9073 68.8373 47.6747 69.3024 47.8493C69.7676 48.0237 70.0002 48.4888 69.8256 48.954C69.3024 50.4075 68.6629 51.861 67.9651 53.2563C67.7907 53.5468 67.5 53.7212 67.2094 53.7212ZM6.04643 49.6514C5.69764 49.6514 5.34869 49.4188 5.23248 49.07C4.70929 47.6165 4.30231 46.105 3.95336 44.5933C3.83715 44.1281 4.18594 43.6631 4.6511 43.5468C5.11626 43.4305 5.58127 43.7211 5.69764 44.2445C5.9884 45.698 6.39538 47.1515 6.91857 48.4887C7.09296 48.9538 6.86038 49.4188 6.39538 49.5934C6.22083 49.6514 6.10461 49.6514 6.04643 49.6514ZM70.2326 45.1165C70.1744 45.1165 70.1164 45.1165 70.0582 45.1165C69.593 45.0003 69.3024 44.5351 69.3605 44.0699C69.6512 42.6164 69.8837 41.1629 69.9418 39.6514C70 39.1862 70.407 38.8374 70.872 38.8374C71.3372 38.8956 71.7441 39.3026 71.686 39.7676C71.5697 41.3373 71.3952 42.9072 71.0464 44.4187C70.9884 44.8259 70.6396 45.1165 70.2326 45.1165ZM4.18594 40.7561C3.72078 40.7561 3.37199 40.4073 3.3138 39.9421C3.25562 39.1282 3.25562 38.3142 3.25562 37.5003C3.25562 36.7445 3.25562 35.9886 3.3138 35.2328C3.37199 34.7677 3.77896 34.4189 4.24397 34.4189C4.70913 34.477 5.1161 34.884 5.05792 35.349C4.99973 36.0468 4.99973 36.8025 4.99973 37.5001C4.99973 38.2559 4.99973 39.0698 5.05792 39.8258C5.1161 40.2909 4.70913 40.6979 4.24397 40.7559C4.18594 40.7561 4.18594 40.7561 4.18594 40.7561ZM70.814 36.0468C70.3488 36.0468 70 35.698 69.9418 35.2328C69.8256 33.7793 69.6511 32.2678 69.3605 30.8142C69.2443 30.3491 69.593 29.8841 70.0582 29.7677C70.5234 29.6515 70.9884 30.0003 71.1047 30.4655C71.3955 31.9772 71.6279 33.5469 71.7443 35.1166C71.8025 35.5818 71.3955 35.9887 70.9303 36.0468C70.8722 36.0468 70.8722 36.0468 70.814 36.0468ZM4.76747 31.6862C4.70929 31.6862 4.65126 31.6862 4.59308 31.6862C4.12791 31.57 3.83731 31.1049 3.89533 30.6397C4.1861 29.128 4.6511 27.6165 5.11626 26.1048C5.29066 25.6396 5.75582 25.407 6.22098 25.5816C6.68615 25.756 6.91873 26.2211 6.74417 26.6863C6.27901 28.0816 5.87203 29.5351 5.58143 30.9886C5.52324 31.3956 5.17445 31.6862 4.76747 31.6862ZM69.0117 27.1515C68.6629 27.1515 68.3139 26.9189 68.1977 26.5701C67.6745 25.1748 67.093 23.8375 66.4536 22.5003C66.221 22.0933 66.3954 21.5701 66.8024 21.3376C67.2094 21.105 67.7326 21.2794 67.9651 21.6864C68.6629 23.0817 69.3023 24.5352 69.8256 25.9887C70 26.4539 69.7674 26.9189 69.3024 27.0934C69.1861 27.1515 69.0699 27.1515 69.0117 27.1515ZM7.79071 23.0817C7.6745 23.0817 7.49994 23.0235 7.38373 22.9655C6.97675 22.7329 6.80236 22.2097 7.03494 21.8027C7.73268 20.4074 8.54664 19.0701 9.4768 17.7911C9.76757 17.3842 10.2908 17.326 10.6977 17.5586C11.1047 17.8493 11.1629 18.3725 10.9303 18.7795C10.0582 20.0004 9.3024 21.2795 8.60466 22.5585C8.43027 22.9071 8.08131 23.0817 7.79071 23.0817ZM64.7675 19.0699C64.4767 19.0699 64.2443 18.9537 64.0698 18.7211C63.1976 17.5002 62.2675 16.3375 61.2791 15.2909C60.9303 14.9421 60.9883 14.3608 61.3373 14.07C61.6861 13.7212 62.2675 13.7792 62.5582 14.1282C63.6048 15.2909 64.5931 16.5119 65.5233 17.7328C65.814 18.1398 65.6977 18.663 65.2907 18.9537C65.1163 19.0119 64.9419 19.0699 64.7675 19.0699ZM13.0232 15.6397C12.7906 15.6397 12.6162 15.5815 12.4419 15.4071C12.0931 15.0584 12.0931 14.535 12.3837 14.1862C13.4302 13.0235 14.5929 11.9769 15.8139 10.9886C16.1627 10.6978 16.744 10.756 17.0348 11.1048C17.3256 11.4536 17.2674 12.035 16.9186 12.3257C15.7559 13.2559 14.7093 14.3024 13.6628 15.349C13.4884 15.5235 13.2558 15.6397 13.0232 15.6397ZM58.6047 12.4421C58.4303 12.4421 58.1977 12.3839 58.0815 12.2677C56.9187 11.3375 55.6978 10.4654 54.4769 9.70963C54.0699 9.47705 53.9537 8.89567 54.1861 8.4887C54.4187 8.08172 55.0001 7.96551 55.407 8.19793C56.7442 9.01188 58.0233 9.94205 59.2442 10.8724C59.593 11.1631 59.6512 11.7445 59.3604 12.0933C59.0698 12.3257 58.8372 12.4421 58.6047 12.4421ZM20.058 9.88386C19.7673 9.88386 19.4767 9.70947 19.3023 9.47689C19.0697 9.06991 19.1861 8.54672 19.593 8.25595C20.9302 7.442 22.3257 6.68623 23.721 6.10486C24.1862 5.93046 24.6512 6.10486 24.8837 6.57002C25.0581 7.03518 24.8837 7.50019 24.4186 7.73277C23.0814 8.31414 21.7441 9.01188 20.465 9.76765C20.3488 9.82584 20.1744 9.88386 20.058 9.88386ZM50.8139 7.73277C50.6977 7.73277 50.5813 7.73277 50.4651 7.67458C49.128 7.09321 47.6745 6.56986 46.2791 6.16288C45.814 6.04667 45.5234 5.52333 45.6978 5.11635C45.814 4.65119 46.3373 4.36058 46.7443 4.53498C48.256 4.94195 49.7094 5.46514 51.1629 6.1047C51.628 6.27909 51.8024 6.80244 51.628 7.26745C51.4535 7.50019 51.1629 7.73277 50.8139 7.73277ZM28.3721 6.22107C27.9652 6.22107 27.6164 5.98849 27.5582 5.58151C27.442 5.11635 27.6744 4.65135 28.1396 4.47679C29.6513 4.06981 31.1628 3.72102 32.7325 3.48844C33.1977 3.43026 33.6627 3.77921 33.7209 4.24421C33.7791 4.70937 33.4301 5.17437 32.9651 5.23256C31.5116 5.46514 30.0581 5.75575 28.6046 6.16273C28.5465 6.22107 28.4302 6.22107 28.3721 6.22107ZM42.0348 5.2909C41.9766 5.2909 41.9766 5.2909 41.9186 5.2909C40.4651 5.11651 38.9535 5.00014 37.5 5.00014H37.3838C36.9187 5.00014 36.5117 4.59316 36.5117 4.128C36.5117 3.66284 36.9187 3.25586 37.3838 3.25586H37.5C39.0698 3.25586 40.6396 3.37207 42.1512 3.54663C42.6163 3.60481 42.9651 4.06981 42.907 4.53498C42.8488 4.94211 42.5 5.2909 42.0348 5.2909Z" fill="#FFB000"/>
<path d="M37.5001 17.8487C37.0349 17.8487 36.6279 17.4417 36.6279 16.9765V14.5928C36.6279 14.1277 37.0349 13.7207 37.5001 13.7207C37.9652 13.7207 38.3722 14.1277 38.3722 14.5928V16.9765C38.372 17.4999 37.9651 17.8487 37.5001 17.8487Z" fill="#33363A"/>
<path d="M37.5001 61.2207C37.0349 61.2207 36.6279 60.8137 36.6279 60.3486V57.9649C36.6279 57.4997 37.0349 57.0928 37.5001 57.0928C37.9652 57.0928 38.3722 57.4997 38.3722 57.9649V60.3486C38.372 60.8719 37.9651 61.2207 37.5001 61.2207Z" fill="#33363A"/>
<path d="M51.9768 23.8953C51.7443 23.8953 51.5117 23.8372 51.3373 23.6628C50.9885 23.314 50.9885 22.7906 51.3373 22.4418L53.0234 20.7557C53.3722 20.4069 53.8955 20.4069 54.2443 20.7557C54.5931 21.1045 54.5931 21.6279 54.2443 21.9767L52.5582 23.6628C52.4418 23.779 52.2093 23.8953 51.9768 23.8953Z" fill="#33363A"/>
<path d="M21.3372 54.535C21.1046 54.535 20.872 54.4768 20.6976 54.3024C20.3488 53.9536 20.3488 53.4303 20.6976 53.0815L22.3837 51.3954C22.7325 51.0466 23.2559 51.0466 23.6047 51.3954C23.9534 51.7442 23.9534 52.2675 23.6047 52.6163L21.9186 54.3024C21.8023 54.4768 21.5698 54.535 21.3372 54.535Z" fill="#33363A"/>
<path d="M60.3488 38.3717H57.9652C57.5 38.3717 57.093 37.9647 57.093 37.4996C57.093 37.0344 57.5 36.6274 57.9652 36.6274H60.3488C60.814 36.6274 61.221 37.0344 61.221 37.4996C61.221 37.9647 60.8722 38.3717 60.3488 38.3717Z" fill="#33363A"/>
<path d="M16.9769 38.3717H14.5931C14.1279 38.3717 13.7209 37.9647 13.7209 37.4996C13.7209 37.0344 14.1279 36.6274 14.5931 36.6274H16.9768C17.4419 36.6274 17.8489 37.0344 17.8489 37.4996C17.8489 37.9647 17.5001 38.3717 16.9769 38.3717Z" fill="#33363A"/>
<path d="M53.6629 54.535C53.4303 54.535 53.1978 54.4768 53.0234 54.3024L51.3373 52.6163C50.9885 52.2675 50.9885 51.7442 51.3373 51.3954C51.6861 51.0466 52.2094 51.0466 52.5582 51.3954L54.2443 53.0815C54.5931 53.4303 54.5931 53.9536 54.2443 54.3024C54.1281 54.4768 53.8955 54.535 53.6629 54.535Z" fill="#33363A"/>
<path d="M23.0233 23.8953C22.7907 23.8953 22.5581 23.8372 22.3837 23.6628L20.6976 21.9767C20.3488 21.6279 20.3488 21.1045 20.6976 20.7557C21.0464 20.4069 21.5698 20.4069 21.9186 20.7557L23.6047 22.4418C23.9534 22.7906 23.9534 23.314 23.6047 23.6628C23.4303 23.779 23.1977 23.8953 23.0233 23.8953Z" fill="#33363A"/>
<path d="M37.5 6.68612C39.1055 6.68612 40.4071 5.3846 40.4071 3.77909C40.4071 2.17359 39.1055 0.87207 37.5 0.87207C35.8945 0.87207 34.593 2.17359 34.593 3.77909C34.593 5.3846 35.8945 6.68612 37.5 6.68612Z" fill="#FFBF31"/>
<path d="M37.5 0.87207C39.0697 0.87207 40.407 2.15119 40.407 3.77909C40.407 5.34882 39.1279 6.68612 37.5 6.68612" fill="#F4AB0B"/>
<path d="M37.5002 7.55817C35.4071 7.55817 33.7212 5.87208 33.7212 3.77916C33.7212 1.68625 35.4071 0 37.5002 0C39.5933 0 41.2792 1.68609 41.2792 3.77901C41.2792 5.87192 39.5931 7.55817 37.5002 7.55817ZM37.5002 1.74412C36.3955 1.74412 35.4653 2.67428 35.4653 3.77901C35.4653 4.88373 36.3955 5.81389 37.5002 5.81389C38.6049 5.81389 39.5351 4.88373 39.5351 3.77901C39.5351 2.67428 38.6048 1.74412 37.5002 1.74412Z" fill="#33363A"/>
<path d="M37.5 74.128C39.1055 74.128 40.4071 72.8265 40.4071 71.221C40.4071 69.6155 39.1055 68.314 37.5 68.314C35.8945 68.314 34.593 69.6155 34.593 71.221C34.593 72.8265 35.8945 74.128 37.5 74.128Z" fill="#FFBF31"/>
<path d="M37.5 68.314C39.0697 68.314 40.407 69.5931 40.407 71.221C40.407 72.7907 39.1279 74.128 37.5 74.128" fill="#F4AB0B"/>
<path d="M37.5002 74.9999C35.4071 74.9999 33.7212 73.3138 33.7212 71.2209C33.7212 69.128 35.4073 67.4419 37.5002 67.4419C39.5933 67.4419 41.2792 69.128 41.2792 71.2209C41.2792 73.3138 39.5931 74.9999 37.5002 74.9999ZM37.5002 69.186C36.3955 69.186 35.4653 70.1162 35.4653 71.2209C35.4653 72.3256 36.3955 73.2558 37.5002 73.2558C38.6049 73.2558 39.5351 72.3256 39.5351 71.2209C39.5351 70.1162 38.6048 69.186 37.5002 69.186Z" fill="#33363A"/>
<path d="M61.3374 16.5699C62.943 16.5699 64.2445 15.2684 64.2445 13.6629C64.2445 12.0574 62.943 10.7559 61.3374 10.7559C59.7319 10.7559 58.4304 12.0574 58.4304 13.6629C58.4304 15.2684 59.7319 16.5699 61.3374 16.5699Z" fill="#FFBF31"/>
<path d="M63.3723 11.6279C64.477 12.7327 64.477 14.593 63.3723 15.6977C62.2675 16.8024 60.4072 16.8024 59.3025 15.6977" fill="#F4AB0B"/>
<path d="M61.3374 17.3837C59.2443 17.3837 57.5583 15.6976 57.5583 13.6047C57.5583 11.5118 59.2444 9.82568 61.3374 9.82568C63.4303 9.82568 65.1164 11.5115 65.1164 13.6045C65.1164 15.6976 63.4303 17.3837 61.3374 17.3837ZM61.3374 11.6278C60.2326 11.6278 59.3025 12.558 59.3025 13.6627C59.3025 14.7674 60.2326 15.6976 61.3374 15.6976C62.4421 15.6976 63.3722 14.7674 63.3722 13.6627C63.3722 12.558 62.4419 11.6278 61.3374 11.6278Z" fill="#33363A"/>
<path d="M13.6629 64.2442C15.2684 64.2442 16.5699 62.9427 16.5699 61.3372C16.5699 59.7317 15.2684 58.4302 13.6629 58.4302C12.0574 58.4302 10.7559 59.7317 10.7559 61.3372C10.7559 62.9427 12.0574 64.2442 13.6629 64.2442Z" fill="#FFBF31"/>
<path d="M15.6977 59.3022C16.8024 60.407 16.8024 62.2673 15.6977 63.372C14.593 64.4767 12.7327 64.4767 11.6279 63.372" fill="#F4AB0B"/>
<path d="M13.6628 65.1161C11.5697 65.1161 9.88379 63.43 9.88379 61.3371C9.88379 59.2442 11.5699 57.5581 13.6628 57.5581C15.7557 57.5581 17.4418 59.2442 17.4418 61.3371C17.4418 63.43 15.6977 65.1161 13.6628 65.1161ZM13.6628 59.3603C12.5581 59.3603 11.6279 60.2904 11.6279 61.3951C11.6279 62.4999 12.5581 63.43 13.6628 63.43C14.7675 63.43 15.6977 62.4999 15.6977 61.3951C15.6977 60.2904 14.7674 59.3603 13.6628 59.3603Z" fill="#33363A"/>
<path d="M71.221 40.4073C72.8265 40.4073 74.128 39.1058 74.128 37.5003C74.128 35.8948 72.8265 34.5933 71.221 34.5933C69.6155 34.5933 68.314 35.8948 68.314 37.5003C68.314 39.1058 69.6155 40.4073 71.221 40.4073Z" fill="#FFBF31"/>
<path d="M74.128 37.5C74.128 39.0697 72.8489 40.407 71.221 40.407C69.5931 40.407 68.314 39.1279 68.314 37.5" fill="#F4AB0B"/>
<path d="M71.2209 41.2792C69.1278 41.2792 67.4419 39.5931 67.4419 37.5002C67.4419 35.4071 69.128 33.7212 71.2209 33.7212C73.3138 33.7212 74.9999 35.4073 74.9999 37.5002C74.9999 39.5931 73.314 41.2792 71.2209 41.2792ZM71.2209 35.4653C70.1162 35.4653 69.186 36.3955 69.186 37.5002C69.186 38.6049 70.1162 39.5351 71.2209 39.5351C72.3256 39.5351 73.2558 38.6049 73.2558 37.5002C73.2558 36.3955 72.3256 35.4653 71.2209 35.4653Z" fill="#33363A"/>
<path d="M3.77909 40.4073C5.3846 40.4073 6.68612 39.1058 6.68612 37.5003C6.68612 35.8948 5.3846 34.5933 3.77909 34.5933C2.17359 34.5933 0.87207 35.8948 0.87207 37.5003C0.87207 39.1058 2.17359 40.4073 3.77909 40.4073Z" fill="#FFBF31"/>
<path d="M6.68612 37.5C6.68612 39.0697 5.407 40.407 3.77909 40.407C2.20937 40.407 0.87207 39.1279 0.87207 37.5" fill="#F4AB0B"/>
<path d="M3.77901 41.2792C1.68609 41.2792 0 39.5931 0 37.5002C0 35.4071 1.68609 33.7212 3.77901 33.7212C5.87192 33.7212 7.55801 35.4073 7.55801 37.5002C7.55817 39.5931 5.87208 41.2792 3.77901 41.2792ZM3.77901 35.4653C2.67428 35.4653 1.74412 36.3955 1.74412 37.5002C1.74412 38.6049 2.67428 39.5351 3.77901 39.5351C4.88373 39.5351 5.81389 38.6049 5.81389 37.5002C5.81389 36.3955 4.88373 35.4653 3.77901 35.4653Z" fill="#33363A"/>
<path d="M61.3374 64.2442C62.943 64.2442 64.2445 62.9427 64.2445 61.3372C64.2445 59.7317 62.943 58.4302 61.3374 58.4302C59.7319 58.4302 58.4304 59.7317 58.4304 61.3372C58.4304 62.9427 59.7319 64.2442 61.3374 64.2442Z" fill="#FFBF31"/>
<path d="M63.3722 63.372C62.2675 64.4767 60.4071 64.4767 59.3024 63.372C58.1977 62.2673 58.1977 60.407 59.3024 59.3022" fill="#F4AB0B"/>
<path d="M61.3374 65.1161C59.2443 65.1161 57.5583 63.43 57.5583 61.3371C57.5583 59.2442 59.2444 57.5581 61.3374 57.5581C63.4303 57.5581 65.1164 59.2442 65.1164 61.3371C65.1164 63.43 63.4303 65.1161 61.3374 65.1161ZM61.3374 59.3603C60.2326 59.3603 59.3025 60.2904 59.3025 61.3951C59.3025 62.4999 60.2326 63.43 61.3374 63.43C62.4421 63.43 63.3722 62.4999 63.3722 61.3951C63.3722 60.2904 62.4419 59.3603 61.3374 59.3603Z" fill="#33363A"/>
<path d="M13.6629 16.5699C15.2684 16.5699 16.5699 15.2684 16.5699 13.6629C16.5699 12.0574 15.2684 10.7559 13.6629 10.7559C12.0574 10.7559 10.7559 12.0574 10.7559 13.6629C10.7559 15.2684 12.0574 16.5699 13.6629 16.5699Z" fill="#FFBF31"/>
<path d="M15.6976 15.6977C14.5929 16.8024 12.7326 16.8024 11.6279 15.6977C10.5231 14.593 10.5231 12.7327 11.6279 11.6279" fill="#F4AB0B"/>
<path d="M13.6628 17.3837C11.5697 17.3837 9.88379 15.6976 9.88379 13.6047C9.88379 11.5118 11.5699 9.82568 13.6628 9.82568C15.7557 9.82568 17.4418 11.5118 17.4418 13.6047C17.4418 15.6976 15.6977 17.3837 13.6628 17.3837ZM13.6628 11.6278C12.5581 11.6278 11.6279 12.558 11.6279 13.6627C11.6279 14.7674 12.5581 15.6976 13.6628 15.6976C14.7675 15.6976 15.6977 14.7674 15.6977 13.6627C15.6977 12.558 14.7674 11.6278 13.6628 11.6278Z" fill="#33363A"/>
</g>
<defs>
<clipPath id="clip0_106_3936">
<rect width="75" height="75" fill="white"/>
</clipPath>
</defs>
</svg>
