<svg width="75" height="75" viewBox="0 0 75 75" fill="none" xmlns="http://www.w3.org/2000/svg">
<g clip-path="url(#clip0_106_3990)">
<path d="M64.2517 41.9613L66.5242 39.6874H42.8169L64.7257 61.5963L61.6221 64.7L39.6928 42.7705V66.5306L41.9462 64.2771L45.05 67.3808L37.5255 74.9579L29.8943 67.3808L32.998 64.2771L35.3027 66.5803V42.8276L13.429 64.7L10.3252 61.5963L32.2342 39.6874H8.39805L10.6822 41.9716L7.57859 45.0754L0 37.4982L7.57859 29.9196L10.6822 33.0234L8.40976 35.2974H32.2196L10.1964 13.2743L13.3002 10.1707L35.3027 32.1718V8.3927L32.9878 10.7076L29.8825 7.60398L37.5255 0.0253906L45.0397 7.60398L41.9359 10.7076L39.6928 8.46443V32.2288L61.7509 10.1707L64.8546 13.2743L42.8315 35.2974H66.5359L64.2517 33.0132L67.3554 29.9079L74.934 37.4865L67.3554 45.0651L64.2517 41.9613Z" fill="#00358F"/>
<path d="M64.2518 41.9613L66.5243 39.6874H42.817L64.7258 61.5963L61.6222 64.7L39.6928 42.7705V66.5306L41.9463 64.2771L45.0501 67.3808L37.5256 74.9579V0.0253906L45.0398 7.60398L41.936 10.7076L39.6928 8.46443V32.2288L61.751 10.1707L64.8547 13.2743L42.8316 35.2974H66.536L64.2518 33.0132L67.3555 29.9079L74.9341 37.4865L67.3555 45.0651L64.2518 41.9613Z" fill="#012453"/>
<path d="M72.7061 61.6045C69.6525 58.551 64.6839 58.5512 61.6306 61.6045C58.5772 64.6579 58.5772 69.6265 61.6306 72.6801C63.1576 74.2067 65.1629 74.9701 67.1684 74.9701C69.1738 74.9701 71.1793 74.2067 72.7061 72.6801C74.1851 71.201 74.9999 69.2342 74.9999 67.1422C74.9999 65.0503 74.1853 63.0834 72.7061 61.6045Z" fill="#E70B69"/>
<path d="M67.1682 15.6881C69.2602 15.6881 71.2272 14.8735 72.7061 13.3943C75.7595 10.341 75.7595 5.37245 72.7062 2.31888H72.7061C69.6527 -0.734547 64.6843 -0.734547 61.6305 2.31888C58.5773 5.37245 58.5773 10.341 61.6305 13.3943C63.1096 14.8735 65.0764 15.6881 67.1682 15.6881Z" fill="#E70B69"/>
<path d="M7.88282 15.6845C9.88828 15.6845 11.8937 14.9211 13.4205 13.3943C14.8997 11.9152 15.7144 9.94856 15.7144 7.85673C15.7144 5.76476 14.8997 3.79794 13.4205 2.31888C10.3672 -0.734401 5.39868 -0.734694 2.34511 2.31888C-0.708461 5.3723 -0.708461 10.3409 2.34511 13.3944C3.8719 14.9211 5.87736 15.6845 7.88282 15.6845Z" fill="#FD4B49"/>
<path d="M7.88274 59.311C5.79077 59.311 3.8241 60.1257 2.34489 61.6049C-0.708388 64.6583 -0.708388 69.6269 2.34489 72.6803C3.82395 74.1594 5.79077 74.9741 7.88274 74.9741C9.97472 74.9741 11.9414 74.1595 13.4205 72.6803C16.4739 69.627 16.4739 64.6584 13.4205 61.6049C11.9414 60.1257 9.97472 59.311 7.88274 59.311Z" fill="#FD4B49"/>
<path d="M20.3041 26.2876L18.7883 26.6814V48.3175L37.5255 59.1357L56.2626 48.3175V26.6814L54.7468 26.2876H20.3041Z" fill="#00B3FE"/>
<path d="M37.5254 26.2876V59.1357L56.2625 48.3175V26.6814L54.7467 26.2876H37.5254Z" fill="#0274F9"/>
<path d="M56.2626 26.6815V26.6822L37.5255 37.4955L18.7883 26.6822V26.6815L37.5255 15.8633L56.2626 26.6815Z" fill="#01F5FF"/>
<path d="M56.2625 26.6815V26.6822L37.5254 37.4955V15.8633L56.2625 26.6815Z" fill="#00B3FE"/>
</g>
<defs>
<clipPath id="clip0_106_3990">
<rect width="75" height="75" fill="white"/>
</clipPath>
</defs>
</svg>
